<?xml version="1.0" encoding="UTF-8"?>
<svg id="Layer_1" data-name="Layer 1" xmlns="http://www.w3.org/2000/svg" viewBox="0 0 876.56 336">
  <defs>
    <style>
      .cls-1 {
        fill: #1e8f8e;
      }

      .cls-2 {
        fill: #17283c;
      }
    </style>
  </defs>
  <g>
    <g>
      <path class="cls-2" d="M334.91,117.08c2.44,0,4.42,1.97,4.42,4.41,0,2.44-1.97,4.41-4.41,4.41h0l-27.8.07c.06,23.03.24,46.44.3,69.52.04,2.58-2.01,4.71-4.6,4.75-.04,0-.08,0-.13,0-2.48.02-4.5-1.98-4.52-4.45,0-.09,0-.19,0-.28l-.17-69.47h-27.61c-5.87.01-5.89-8.8,0-8.81l64.52-.16Z"/>
      <path class="cls-2" d="M342.93,178.45l-10.06,20.24c-2.28,4.74-10.47,1.44-8.24-3.69l37.47-76.2c.77-1.55,2.38-2.51,4.11-2.45,1.69-.04,3.25.91,3.99,2.43l37.73,75.63c3.25,5.49-5.97,8.72-8.35,3.74l-9.77-19.81-46.89.11ZM366.27,130.04l-19.6,40.35,39.27-.09-19.68-40.25Z"/>
      <path class="cls-2" d="M424.84,170.46l.06,24.82c0,5.88-9.13,5.9-9.13.15l-.18-73.43c-.11-2.37,1.72-4.38,4.1-4.49.16,0,.31,0,.47,0l29.55-.07c21.57-.06,32.58,12.46,32.62,27.42,0,12.91-6.85,22.27-22.14,24.99l20.26,22.34c4.76,4.86-2.09,10.5-6.22,6.15l-25.19-27.96-24.18.07ZM424.84,162.4l25.19-.07c16.33,0,23.42-7.85,23.15-17.45-.17-10.5-8.75-18.94-23.26-18.87h-25.19l.11,36.39Z"/>
      <path class="cls-2" d="M501.71,190.95l49.25-.11c5.24,0,6.01,8.42,0,8.43l-52.5.14c-3.04.11-5.59-2.25-5.7-5.28,0-.11,0-.22,0-.34l-.18-70.23c-.01-3.03,2.44-5.51,5.47-5.52.08,0,.15,0,.23,0l52.62-.13c5.36,0,5.14,8.17-.1,8.18l-49.25.13.08,28.81,46.89-.11c4.99,0,5.25,8.17,0,8.18l-46.89.13.09,27.72Z"/>
      <path class="cls-2" d="M623.49,120.97c0-5.37,9.46-5.7,9.47,0l.18,73.43c0,6.39-8.58,7.05-11.21,2.59l-46.81-64.04,1.05,17.65.09,45.16c0,6.27-9.45,6.42-9.47,0l-.18-73.31c0-6.39,6.96-7.43,10.1-2.71l48.16,65.76-1.28-19.28-.11-45.25Z"/>
      <path class="cls-2" d="M706.53,117.09c2.44-.12,4.52,1.75,4.65,4.19.12,2.44-1.76,4.52-4.2,4.64-.15,0-.3,0-.45,0l-27.8.07c0,23.02.24,46.43.3,69.52.04,2.57-2.01,4.7-4.59,4.74-.05,0-.09,0-.14,0-2.47.05-4.52-1.9-4.57-4.37,0-.12,0-.23,0-.35l-.17-69.47-27.68.07c-5.87,0-5.89-8.81,0-8.82l64.64-.23Z"/>
      <path class="cls-2" d="M708.26,157.43c0-20.08,13.13-37.26,32.94-40.51,4.39-.58,8.84-.58,13.23,0,19.82,3.12,34.34,20.28,34.14,40.31.07,26.6-18.59,43.54-39.8,43.59-22.44.05-40.44-16.27-40.51-43.4ZM717.6,157.8c0,20.98,13.56,34.25,31.14,34.19,16.83,0,30.64-12.87,30.6-34.36,0-16.5-10.67-29.63-26.02-32.17-3.6-.51-7.25-.51-10.85,0-15.08,2.51-24.89,14.94-24.86,32.34Z"/>
    </g>
    <g>
      <path class="cls-1" d="M225.99,116.35l-68.89,47.01-69.11-46.66v84.64l69.34,46.66,68.66-47.01v-84.64ZM102.01,143.07l55.13,37.22,54.82-37.42v16.97s-55.28,37.7-55.28,37.7l-54.68-36.85v-17.62ZM157.26,231.07l-55.25-37.17v-16.19l54.68,36.76,55.27-37.79v16.93s-54.7,37.46-54.7,37.46Z"/>
      <polygon class="cls-2" points="143.47 137.61 157.06 146.79 201.57 116.42 187.96 107.23 143.47 137.61"/>
      <polygon class="cls-2" points="128.59 127.56 114.98 118.38 159.5 88 173.08 97.18 128.59 127.56"/>
    </g>
  </g>
  <g>
    <g>
      <path class="cls-2" d="M334.91,117.08c2.44,0,4.42,1.97,4.42,4.41,0,2.44-1.97,4.41-4.41,4.41h0l-27.8.07c.06,23.03.24,46.44.3,69.52.04,2.58-2.01,4.71-4.6,4.75-.04,0-.08,0-.13,0-2.48.02-4.5-1.98-4.52-4.45,0-.09,0-.19,0-.28l-.17-69.47h-27.61c-5.87.01-5.89-8.8,0-8.81l64.52-.16Z"/>
      <path class="cls-2" d="M342.93,178.45l-10.06,20.24c-2.28,4.74-10.47,1.44-8.24-3.69l37.47-76.2c.77-1.55,2.38-2.51,4.11-2.45,1.69-.04,3.25.91,3.99,2.43l37.73,75.63c3.25,5.49-5.97,8.72-8.35,3.74l-9.77-19.81-46.89.11ZM366.27,130.04l-19.6,40.35,39.27-.09-19.68-40.25Z"/>
      <path class="cls-2" d="M424.84,170.46l.06,24.82c0,5.88-9.13,5.9-9.13.15l-.18-73.43c-.11-2.37,1.72-4.38,4.1-4.49.16,0,.31,0,.47,0l29.55-.07c21.57-.06,32.58,12.46,32.62,27.42,0,12.91-6.85,22.27-22.14,24.99l20.26,22.34c4.76,4.86-2.09,10.5-6.22,6.15l-25.19-27.96-24.18.07ZM424.84,162.4l25.19-.07c16.33,0,23.42-7.85,23.15-17.45-.17-10.5-8.75-18.94-23.26-18.87h-25.19l.11,36.39Z"/>
      <path class="cls-2" d="M501.71,190.95l49.25-.11c5.24,0,6.01,8.42,0,8.43l-52.5.14c-3.04.11-5.59-2.25-5.7-5.28,0-.11,0-.22,0-.34l-.18-70.23c-.01-3.03,2.44-5.51,5.47-5.52.08,0,.15,0,.23,0l52.62-.13c5.36,0,5.14,8.17-.1,8.18l-49.25.13.08,28.81,46.89-.11c4.99,0,5.25,8.17,0,8.18l-46.89.13.09,27.72Z"/>
      <path class="cls-2" d="M623.49,120.97c0-5.37,9.46-5.7,9.47,0l.18,73.43c0,6.39-8.58,7.05-11.21,2.59l-46.81-64.04,1.05,17.65.09,45.16c0,6.27-9.45,6.42-9.47,0l-.18-73.31c0-6.39,6.96-7.43,10.1-2.71l48.16,65.76-1.28-19.28-.11-45.25Z"/>
      <path class="cls-2" d="M706.53,117.09c2.44-.12,4.52,1.75,4.65,4.19.12,2.44-1.76,4.52-4.2,4.64-.15,0-.3,0-.45,0l-27.8.07c0,23.02.24,46.43.3,69.52.04,2.57-2.01,4.7-4.59,4.74-.05,0-.09,0-.14,0-2.47.05-4.52-1.9-4.57-4.37,0-.12,0-.23,0-.35l-.17-69.47-27.68.07c-5.87,0-5.89-8.81,0-8.82l64.64-.23Z"/>
      <path class="cls-2" d="M708.26,157.43c0-20.08,13.13-37.26,32.94-40.51,4.39-.58,8.84-.58,13.23,0,19.82,3.12,34.34,20.28,34.14,40.31.07,26.6-18.59,43.54-39.8,43.59-22.44.05-40.44-16.27-40.51-43.4ZM717.6,157.8c0,20.98,13.56,34.25,31.14,34.19,16.83,0,30.64-12.87,30.6-34.36,0-16.5-10.67-29.63-26.02-32.17-3.6-.51-7.25-.51-10.85,0-15.08,2.51-24.89,14.94-24.86,32.34Z"/>
    </g>
    <g>
      <path class="cls-1" d="M225.99,116.35l-68.89,47.01-69.11-46.66v84.64l69.34,46.66,68.66-47.01v-84.64ZM102.01,143.07l55.13,37.22,54.82-37.42v16.97s-55.28,37.7-55.28,37.7l-54.68-36.85v-17.62ZM157.26,231.07l-55.25-37.17v-16.19l54.68,36.76,55.27-37.79v16.93s-54.7,37.46-54.7,37.46Z"/>
      <polygon class="cls-2" points="143.47 137.61 157.06 146.79 201.57 116.42 187.96 107.23 143.47 137.61"/>
      <polygon class="cls-2" points="128.59 127.56 114.98 118.38 159.5 88 173.08 97.18 128.59 127.56"/>
    </g>
  </g>
</svg>